<?xml version="1.0" encoding="UTF-8"?>
<svg version="1.1" xmlns="http://www.w3.org/2000/svg" width="4168" height="4168">
<path d="M0 0 C1.35200531 -0.00702709 2.70401031 -0.01411385 4.05601501 -0.02125549 C8.36026485 -0.04066761 12.66446081 -0.04569101 16.96875 -0.046875 C18.07098341 -0.04753778 18.07098341 -0.04753778 19.19548416 -0.04821396 C43.05867015 -0.05573264 66.74543797 0.38961826 90.46875 3.203125 C91.5798111 3.3339447 91.5798111 3.3339447 92.71331787 3.46740723 C136.78329936 8.72121996 179.40334286 18.60851236 219.46875 38.203125 C218.85545422 42.46365725 217.35845304 45.66499225 215.328125 49.4453125 C215.00967621 50.0417305 214.69122742 50.6381485 214.36312866 51.25263977 C213.32166018 53.19812779 212.27051865 55.1381889 211.21875 57.078125 C210.49043157 58.43254208 209.76240711 59.78711728 209.03466797 61.1418457 C204.13755706 70.23326208 199.10444879 79.24317639 193.98339844 88.21044922 C190.26573873 94.73543939 186.73357949 101.33709369 183.27587891 108.00268555 C179.45649688 115.32252737 175.37387332 122.48439361 171.28515625 129.65625 C167.89870499 135.61640421 164.62504036 141.61821112 161.46875 147.703125 C157.26814132 155.80134764 152.80311543 163.73147705 148.28515625 171.65625 C144.89870162 177.61641014 141.6251911 183.61828694 138.46875 189.703125 C134.90856036 196.5630202 131.17725605 203.30481227 127.34375 210.015625 C121.41893105 220.39273319 115.77257807 230.90451918 110.20068359 241.47387695 C108.63054079 244.44918052 107.0468645 247.41685191 105.45062256 250.37823486 C104.77042351 251.6424402 104.09395458 252.90865692 103.42047119 254.17645264 C102.37328011 256.13964481 101.30816314 258.09206846 100.23828125 260.04296875 C99.61155518 261.20046631 98.9848291 262.35796387 98.33911133 263.55053711 C96.46875 266.203125 96.46875 266.203125 94.4230957 267.16455078 C91.19396354 267.22828631 88.63777844 265.59499033 85.84375 264.140625 C72.69821166 257.6784866 58.92661607 253.49201268 44.46875 251.203125 C43.30730469 251.01878906 42.14585938 250.83445312 40.94921875 250.64453125 C15.9604923 247.66039985 -11.50463325 249.24022837 -32.0390625 265.11328125 C-35.2198841 267.78058463 -38.28665577 270.55039871 -41.265625 273.44140625 C-43.53125 275.203125 -43.53125 275.203125 -50.53125 278.203125 C-52.18125 284.473125 -53.83125 290.743125 -55.53125 297.203125 C0.89875 297.203125 57.32875 297.203125 115.46875 297.203125 C114.34374833 306.20313835 114.34374833 306.20313835 113.40180969 310.46321106 C113.19033798 311.42805923 112.97886627 312.39290741 112.76098633 313.38699341 C112.53088867 314.41920013 112.30079102 315.45140686 112.0637207 316.51489258 C111.8196196 317.62361221 111.57551849 318.73233185 111.32402039 319.87464905 C110.51765133 323.53309163 109.70612047 327.19036849 108.89453125 330.84765625 C108.32709523 333.4170605 107.75997719 335.98653499 107.19316101 338.55607605 C105.85038961 344.64063375 104.50388143 350.72435815 103.15603465 356.80779332 C101.6457624 363.6252119 100.13975726 370.44357061 98.6340853 377.2620064 C96.52397142 386.81702793 94.412425 396.37173277 92.2971983 405.92562389 C91.78523601 408.23817685 91.27362678 410.550808 90.76239491 412.86352253 C89.43503931 418.86323138 88.09734457 424.86043157 86.7461853 430.85482788 C86.32715958 432.72048291 86.32715958 432.72048291 85.89966869 434.62382793 C85.36393759 437.0076257 84.8256677 439.39085473 84.28451252 441.77342701 C84.04606208 442.83627761 83.80761164 443.89912821 83.56193542 444.9941864 C83.24444226 446.39842629 83.24444226 446.39842629 82.92053509 447.83103466 C82.37520227 450.29184082 82.37520227 450.29184082 82.46875 453.203125 C84.491092 451.03785055 86.51163878 448.87094428 88.53125 446.703125 C89.09263672 446.10242187 89.65402344 445.50171875 90.23242188 444.8828125 C93.14201224 441.75708114 95.99852684 438.60265642 98.78125 435.36328125 C103.09993075 430.40134151 107.74618592 425.77971355 112.40625 421.140625 C113.26154297 420.28146484 114.11683594 419.42230469 114.99804688 418.53710938 C119.99331086 413.54946593 125.10410741 408.78869111 130.46875 404.203125 C131.51711318 403.27772486 132.56406586 402.35072352 133.609375 401.421875 C177.02259556 363.27255095 229.26723278 333.90597775 283.46875 314.203125 C284.64453613 313.77547852 285.82032227 313.34783203 287.03173828 312.90722656 C344.66098499 292.23986267 405.44698796 283.60771799 466.46875 282.203125 C467.84522705 282.16807861 467.84522705 282.16807861 469.24951172 282.13232422 C524.24911855 280.89859129 580.32909136 286.87357522 633.46875 301.203125 C634.66741699 301.52619629 635.86608398 301.84926758 637.10107422 302.18212891 C683.84369175 315.01477473 729.33939116 335.38866878 768.46875 364.203125 C769.15050293 364.70376465 769.83225586 365.2044043 770.53466797 365.72021484 C782.94377268 374.89240699 795.04424152 384.54490239 805.83740234 395.6003418 C807.47946209 397.21364952 809.18855745 398.68243246 810.96875 400.140625 C814.14216849 402.81556404 816.79642104 405.73977683 819.4765625 408.90234375 C821.77449074 411.55622558 824.18410573 414.08779897 826.59375 416.640625 C892.29582868 487.65976625 911.62253163 584.11546344 908.37561035 677.89318848 C907.00056677 709.6546934 901.81575042 741.54489796 893.46875 772.203125 C893.17774414 773.27788086 892.88673828 774.35263672 892.58691406 775.45996094 C875.44686018 837.87152221 843.53462744 896.78623608 799.8046875 944.62109375 C798.54334517 946.01531997 797.28782332 947.41543627 796.06835938 948.84643555 C790.94604223 954.83777278 785.43430524 960.42370169 779.86376953 965.9934082 C778.23047552 967.62888382 776.6053653 969.27220208 774.98046875 970.91601562 C769.24636654 976.68065537 763.40403202 982.07097515 757.0300293 987.13818359 C754.56909279 989.12222715 752.22009402 991.18543403 749.87890625 993.30859375 C745.41446014 997.3169783 740.72320075 1000.94295418 735.90625 1004.515625 C735.03492432 1005.16442627 734.16359863 1005.81322754 733.26586914 1006.48168945 C714.65353362 1020.26791184 695.30467598 1032.94668456 674.88671875 1043.90380859 C673.22991117 1044.79410847 671.57641285 1045.69058644 669.92578125 1046.59228516 C632.34852314 1067.0946481 592.15197645 1081.63410606 550.46875 1091.203125 C548.69491943 1091.61401367 548.69491943 1091.61401367 546.88525391 1092.03320312 C527.63507005 1096.42447772 508.22691965 1099.55697324 488.63665771 1101.93884277 C487.23660127 1102.10951887 485.83687185 1102.28290961 484.43756104 1102.45959473 C437.38452171 1108.39205872 386.51162074 1107.9881474 339.46875 1102.203125 C338.01188495 1102.02975629 336.55501638 1101.85641708 335.09814453 1101.68310547 C284.94568099 1095.61458046 236.05495806 1083.3195226 189.97900391 1062.34521484 C187.68334327 1061.30075847 185.38010671 1060.27551556 183.07421875 1059.25390625 C157.60791459 1047.80817398 133.31349792 1032.56341456 111.46875 1015.203125 C110.11716797 1014.13771484 110.11716797 1014.13771484 108.73828125 1013.05078125 C102.68400217 1008.19198746 96.94381487 1003.05083698 91.2578125 997.7734375 C88.9236545 995.62235071 86.56128383 993.52386842 84.15625 991.453125 C78.51854034 986.54924945 73.38968197 981.26022133 68.5234375 975.59375 C66.9812447 973.79941161 65.42083625 972.02070291 63.8515625 970.25 C-0.17742742 897.58252263 -22.13640286 802.33984576 -17.01586914 707.50830078 C-14.23414418 663.87487516 -5.3332311 622.6090683 8.46875 581.203125 C-30.14125 581.203125 -68.75125 581.203125 -108.53125 581.203125 C-109.19125 585.493125 -109.85125 589.783125 -110.53125 594.203125 C-111.23393997 597.96701251 -111.95488592 601.72036248 -112.71173096 605.47302246 C-112.92251274 606.53020021 -113.13329452 607.58737796 -113.35046363 608.6765914 C-114.05024787 612.18273262 -114.75411805 615.68804026 -115.45800781 619.19335938 C-115.96471723 621.72769867 -116.47117491 624.26208831 -116.97740173 626.79652405 C-118.21070274 632.9686503 -119.4470652 639.14015945 -120.68444821 645.31146848 C-122.14785264 652.61071021 -123.60806542 659.9105894 -125.06817576 667.21049064 C-127.70050553 680.37044991 -130.33554475 693.52986517 -132.97216797 706.68896484 C-135.47750447 719.19284564 -137.981247 731.6970439 -140.48291016 744.20166016 C-140.71020153 745.3377679 -140.71020153 745.3377679 -140.94208465 746.49682732 C-141.55285848 749.54976415 -142.16362998 752.60270146 -142.77439745 755.65563957 C-155.00149428 816.77206375 -167.26461409 877.88100686 -179.61030978 938.97359884 C-184.58264572 963.57931355 -189.54510165 988.18683579 -194.45703125 1012.8046875 C-194.69576588 1014.00102058 -194.9345005 1015.19735367 -195.18046951 1016.42993927 C-197.21122747 1026.60853357 -199.23853691 1036.78781367 -201.26489258 1046.96728516 C-202.4233358 1052.7861 -203.58360518 1058.60454827 -204.7450161 1064.42277145 C-205.37415347 1067.57750556 -206.00112825 1070.73266415 -206.62800598 1073.8878479 C-207.00098569 1075.75679948 -207.37408115 1077.62572796 -207.74731445 1079.49462891 C-207.99865143 1080.76445618 -207.99865143 1080.76445618 -208.25506592 1082.05993652 C-208.87954973 1085.17709074 -209.52479152 1088.18374956 -210.53125 1091.203125 C-314.15125 1091.203125 -417.77125 1091.203125 -524.53125 1091.203125 C-523.94247995 1085.31542453 -523.38797819 1079.85691821 -522.29759216 1074.11448669 C-522.17643541 1073.46995779 -522.05527866 1072.82542888 -521.9304505 1072.16136879 C-521.528588 1070.02923085 -521.12063642 1067.89830718 -520.71264648 1065.76733398 C-520.41851668 1064.21374966 -520.12476865 1062.66009302 -519.83136749 1061.10637093 C-519.02910942 1056.86390319 -518.2215132 1052.62246697 -517.41301417 1048.38118482 C-516.54436557 1043.81916994 -515.68074912 1039.25620235 -514.81654358 1034.69334412 C-513.3231637 1026.81218796 -511.82669551 1018.93162339 -510.328125 1011.05145264 C-508.14655529 999.57956729 -505.96997142 988.1067403 -503.79471183 976.63365698 C-500.52033785 959.36372285 -497.24340908 942.09427506 -493.96436906 924.82522631 C-489.31452317 900.33658893 -484.6721758 875.84653791 -480.03515625 851.35546875 C-479.86687757 850.46668352 -479.6985989 849.5778983 -479.52522087 848.66218019 C-478.01496064 840.68543706 -476.50480471 832.70867419 -474.9948082 824.73188114 C-472.86140208 813.46197001 -470.72703092 802.19224202 -468.59207582 790.92262423 C-462.23108008 757.34458158 -455.8788101 723.76492207 -449.54886246 690.1810112 C-448.57900309 685.03539812 -447.60884381 679.88984161 -446.63864136 674.74429321 C-446.00907949 671.40521518 -445.37953589 668.06613371 -444.75 664.72705078 C-444.59632029 663.91194322 -444.44264058 663.09683566 -444.2843039 662.25702786 C-442.47935185 652.6833325 -440.67587035 643.10936252 -438.87475783 633.53494406 C-437.77157436 627.67104258 -436.66699108 621.80740595 -435.5612945 615.94397783 C-434.92764931 612.5834385 -434.29473984 609.22276463 -433.66371346 605.86173248 C-432.98285968 602.23705213 -432.29948793 598.61285549 -431.61547852 594.98876953 C-431.4167942 593.92746763 -431.21810989 592.86616573 -431.01340485 591.77270317 C-430.74006191 590.32868724 -430.74006191 590.32868724 -430.4611969 588.85549927 C-430.3045736 588.02323381 -430.14795031 587.19096836 -429.98658085 586.33348274 C-429.53125 584.203125 -429.53125 584.203125 -428.53125 581.203125 C-461.86125 581.203125 -495.19125 581.203125 -529.53125 581.203125 C-530.19125 585.493125 -530.85125 589.783125 -531.53125 594.203125 C-532.17061523 597.63436352 -532.82666499 601.0543498 -533.52050781 604.47412109 C-533.71031754 605.4220242 -533.90012728 606.36992731 -534.09568882 607.34655476 C-534.72255131 610.47377275 -535.35348594 613.60015458 -535.984375 616.7265625 C-536.43629496 618.97762932 -536.88792193 621.22875498 -537.33927917 623.47993469 C-538.30779412 628.3080933 -539.27797629 633.1359126 -540.2494812 637.96347046 C-542.61710396 649.72973567 -544.97544431 661.49786386 -547.33418083 673.26591301 C-547.87665004 675.97233573 -548.41925592 678.678731 -548.96197701 681.38510323 C-553.90344087 706.02742243 -558.79786637 730.67890683 -563.67248535 755.33453369 C-570.49579543 789.84637562 -577.35229621 824.35139623 -584.25390625 858.84765625 C-584.42321742 859.69396473 -584.59252859 860.5402732 -584.7669704 861.41222739 C-587.99382837 877.54156037 -591.22186101 893.67065828 -594.45407104 909.79891968 C-606.5684088 970.24970258 -618.54489238 1030.72650244 -630.53125 1091.203125 C-732.83125 1091.203125 -835.13125 1091.203125 -940.53125 1091.203125 C-939.40646754 1079.95530039 -939.40646754 1079.95530039 -938.40795898 1075.17431641 C-938.18780624 1074.10686188 -937.9676535 1073.03940735 -937.74082947 1071.93960571 C-937.50537918 1070.8225827 -937.26992889 1069.70555969 -937.02734375 1068.5546875 C-936.7846022 1067.37973724 -936.54186066 1066.20478699 -936.29176331 1064.99423218 C-935.52224015 1061.27117842 -934.74615413 1057.54954051 -933.96875 1053.828125 C-933.18819375 1050.08520511 -932.40917644 1046.34199793 -931.63502502 1042.5977478 C-931.15476969 1040.27535512 -930.6708015 1037.95372645 -930.182724 1035.63296509 C-929.85722313 1034.06015274 -929.85722313 1034.06015274 -929.52514648 1032.45556641 C-929.33274887 1031.5353067 -929.14035126 1030.615047 -928.94212341 1029.66690063 C-928.42158728 1026.9618397 -928.42158728 1026.9618397 -928.53125 1023.203125 C-929.63919922 1024.23759766 -929.63919922 1024.23759766 -930.76953125 1025.29296875 C-949.04984389 1042.27123882 -968.78360836 1056.95228838 -990.53125 1069.203125 C-991.35818359 1069.67347168 -992.18511719 1070.14381836 -993.03710938 1070.62841797 C-1022.31419669 1087.12953119 -1054.4647599 1096.87707963 -1087.53125 1102.203125 C-1089.00948242 1102.4508667 -1089.00948242 1102.4508667 -1090.51757812 1102.70361328 C-1106.69470293 1105.30562254 -1122.87248952 1105.51183445 -1139.21875 1105.578125 C-1140.24275909 1105.58607086 -1141.26676819 1105.59401672 -1142.32180786 1105.60220337 C-1207.60753433 1105.99118635 -1273.48296645 1082.35041632 -1325.53125 1043.203125 C-1326.06234375 1042.80947754 -1326.5934375 1042.41583008 -1327.140625 1042.01025391 C-1340.64086498 1031.99566448 -1352.98985526 1020.92555767 -1364.90625 1009.078125 C-1365.82140381 1008.17223633 -1366.73655762 1007.26634766 -1367.67944336 1006.33300781 C-1373.72157801 1000.26288253 -1379.20815386 993.90787771 -1384.53125 987.203125 C-1385.55652098 985.94882369 -1386.58359548 984.69599215 -1387.61328125 983.4453125 C-1401.26556412 966.68346511 -1412.69133504 948.90000501 -1423.53125 930.203125 C-1423.94890625 929.48946777 -1424.3665625 928.77581055 -1424.796875 928.04052734 C-1454.05750421 877.64280411 -1465.06617308 816.30227488 -1467.09375 758.765625 C-1467.13693359 757.65380859 -1467.18011719 756.54199219 -1467.22460938 755.39648438 C-1469.98467098 679.64812695 -1456.08146322 605.54436901 -1425.53125 536.203125 C-1425.16580078 535.36845703 -1424.80035156 534.53378906 -1424.42382812 533.67382812 C-1408.32428363 497.2380169 -1386.01682908 463.69405513 -1360.53125 433.203125 C-1360.10150879 432.6870166 -1359.67176758 432.1709082 -1359.22900391 431.63916016 C-1301.9737006 363.08427607 -1223.33542032 312.93836613 -1082.86914062 283.78442383 C-1073.10606706 282.9322334 -1063.32557778 282.49119346 -1053.53125 282.203125 C-1052.45568848 282.16807861 -1052.45568848 282.16807861 -1051.35839844 282.13232422 C-1016.44678 281.12931056 -981.27372667 285.42122065 -947.53125 294.203125 C-946.21036377 294.54682129 -946.21036377 294.54682129 -944.86279297 294.89746094 C-924.64080429 300.29051308 -904.92701942 308.23092209 -886.53125 318.203125 C-885.93844238 318.51958984 -885.34563477 318.83605469 -884.73486328 319.16210938 C-860.01881299 332.43193001 -839.47919097 350.95380217 -822.53125 373.203125 C-821.20077357 374.87207318 -819.86791614 376.53913005 -818.53125 378.203125 C-818.33302139 377.21784821 -818.13479279 376.23257141 -817.93055725 375.21743774 C-816.06489954 365.94628489 -814.19624779 356.67573995 -812.32463932 347.40578651 C-811.36245331 342.63964315 -810.40133498 337.8732896 -809.44262695 333.10644531 C-808.51792344 328.5088775 -807.59045429 323.91187564 -806.66103935 319.31525803 C-806.3063887 317.55872981 -805.95274648 315.80199768 -805.60011482 314.04506302 C-805.1072282 311.59020922 -804.61080785 309.13609543 -804.11352539 306.68212891 C-803.96750885 305.95061111 -803.82149231 305.21909332 -803.67105103 304.46540833 C-802.64530216 299.43122932 -802.64530216 299.43122932 -801.53125 297.203125 C-660.62125 297.203125 -519.71125 297.203125 -374.53125 297.203125 C-373.87125 292.583125 -373.21125 287.963125 -372.53125 283.203125 C-369.1873834 261.04240908 -363.37938422 240.7900703 -354.53125 220.203125 C-354.23025391 219.49655762 -353.92925781 218.78999023 -353.61914062 218.06201172 C-331.9334397 167.80910985 -291.88311783 116.77689015 -248.53125 83.203125 C-246.65335881 81.60234383 -244.77853283 79.99796215 -242.90625 78.390625 C-176.70179379 23.33370576 -84.8568084 0.30022166 0 0 Z M362.6796875 579.0546875 C334.23878161 610.612405 320.42763442 651.40467086 316.46875 693.203125 C316.30246094 694.77320312 316.30246094 694.77320312 316.1328125 696.375 C312.64294458 735.04650938 316.68679636 777.69913755 341.92382812 809.00830078 C345.25581118 812.92566157 348.80330245 816.59887232 352.46875 820.203125 C353.30277344 821.03585937 354.13679688 821.86859375 354.99609375 822.7265625 C375.76263956 842.44973243 404.20665111 849.63980545 432.15625 849.515625 C433.47189941 849.51071045 434.78754883 849.5057959 436.14306641 849.50073242 C452.14316439 849.30887293 466.43349669 846.54080022 481.46875 841.203125 C482.49226563 840.84605469 483.51578125 840.48898437 484.5703125 840.12109375 C498.91128741 834.65142273 511.2311094 825.48404755 522.46875 815.203125 C523.68304687 814.09517578 523.68304687 814.09517578 524.921875 812.96484375 C560.7692482 778.68422637 574.58990136 724.8309844 575.75390625 676.82421875 C576.02850746 662.152044 575.98412354 647.528909 572.46875 633.203125 C572.27539062 632.40729004 572.08203125 631.61145508 571.8828125 630.79150391 C564.00704253 599.59835014 546.38707972 570.21895447 518.46875 553.203125 C500.17180227 542.57082632 480.54547121 538.76577094 459.53125 538.828125 C458.4455069 538.82943924 458.4455069 538.82943924 457.33782959 538.83078003 C420.87620655 538.97581553 388.11936959 552.72628289 362.6796875 579.0546875 Z M-1087.65063477 582.84155273 C-1123.85245489 620.588333 -1134.8659036 675.56362684 -1134.53125 726.203125 C-1133.73018133 757.55512999 -1125.00808765 786.131734 -1104.53125 810.203125 C-1103.92925781 810.95078125 -1103.32726563 811.6984375 -1102.70703125 812.46875 C-1085.6975533 832.86585983 -1059.4405189 843.43442805 -1033.53125 846.203125 C-1028.30066296 846.48719587 -1023.08067358 846.54533573 -1017.84375 846.515625 C-1016.78901993 846.51189377 -1016.78901993 846.51189377 -1015.71298218 846.50808716 C-981.25062802 846.31990717 -951.71192788 835.01952467 -926.53125 811.203125 C-925.65726563 810.40519531 -924.78328125 809.60726562 -923.8828125 808.78515625 C-898.92983615 785.15490214 -884.85431926 750.96281002 -878.34375 717.765625 C-878.18874023 716.9806665 -878.03373047 716.19570801 -877.87402344 715.38696289 C-875.17438131 700.75213823 -874.17803449 686.17505777 -874.21557617 671.31689453 C-874.21874853 668.70433183 -874.19510247 666.09289403 -874.16992188 663.48046875 C-874.0407629 629.09007447 -885.04871272 597.00470174 -908.859375 571.7890625 C-959.2298457 523.03869466 -1041.36865951 536.13109153 -1087.65063477 582.84155273 Z " fill="#4D7DBF" transform="translate(2555.53125,1462.796875)"/>
<path d="M0 0 C309.54 0 619.08 0 938 0 C932.25083199 29.89567368 932.25083199 29.89567368 929.64111328 42.83203125 C929.33950117 44.33152419 929.03798602 45.83103664 928.73655701 47.33056641 C927.93316135 51.32580703 927.12840813 55.32077299 926.32334375 59.31567764 C925.45811594 63.61028188 924.59412355 67.9051347 923.72994995 72.19995117 C922.26994326 79.45506811 920.80908913 86.71001397 919.34765625 93.96484375 C917.88303472 101.23552539 916.41911831 108.50634845 914.95605469 115.77734375 C910.86211209 136.12280615 906.76440495 156.4675035 902.66028237 176.81091499 C902.39827841 178.10962438 902.39827841 178.10962438 902.13098145 179.43457031 C901.95626745 180.30058302 901.78155345 181.16659573 901.6015451 182.05885124 C900.33407673 188.34206113 899.06809129 194.62556885 897.8026123 200.90917969 C896.20445394 208.84443711 894.60417587 216.77926369 893.00129545 224.71356869 C892.16796156 228.83884116 891.33555647 232.96429551 890.50555801 237.09024048 C889.74022019 240.89455314 888.97223169 244.6983206 888.20210695 248.50166702 C887.92127059 249.89101909 887.64141744 251.2805703 887.36260557 252.67033005 C886.98394351 254.55703626 886.6014428 256.44297086 886.21871948 258.32885742 C886.00611921 259.38264084 885.79351894 260.43642426 885.57447624 261.5221405 C885 264 885 264 884 266 C785.99 266 687.98 266 587 266 C585.35 274.25 583.7 282.5 582 291 C579.25043272 304.25436646 579.25043272 304.25436646 578.28552246 308.83625793 C578.07002243 309.86027018 577.8545224 310.88428242 577.63249207 311.93932533 C577.29813896 313.52783586 577.29813896 313.52783586 576.95703125 315.1484375 C576.47561968 317.43993811 575.99429931 319.73145788 575.51306152 322.022995 C574.2186727 328.18472459 572.92264723 334.34610881 571.626194 340.50740433 C570.80158294 344.42689022 569.9774117 348.34646834 569.15341187 352.26608276 C558.32556756 403.77049728 547.44439435 455.26361561 536.55145335 506.75429922 C530.03448284 537.56000368 523.52457919 568.36720078 517.01592636 599.17466354 C516.37991592 602.18509589 515.74389132 605.19552525 515.10785294 608.20595169 C505.75847218 652.45741477 496.41810925 696.71077257 487.08545208 740.96576548 C477.95212598 784.27550717 468.81000123 827.58338247 459.65982485 870.88956738 C459.18773241 873.12390007 458.71564425 875.35823366 458.24355698 877.59256744 C453.33724202 900.81352737 448.43038076 924.03437186 443.52343941 947.25519943 C438.77591784 969.72162168 434.02857118 992.18808087 429.28164196 1014.65462828 C428.81379618 1016.86886541 428.34594389 1019.08310117 427.8780899 1021.29733658 C420.70016071 1055.2687794 413.5255267 1089.24091437 406.359375 1123.21484375 C406.20391638 1123.95185107 406.04845775 1124.68885839 405.88828826 1125.44819927 C402.76252011 1140.26711656 399.63723037 1155.08613467 396.51281548 1169.90533733 C395.43850653 1175.00071427 394.3640606 1180.09606231 393.28960419 1185.19140816 C392.57420075 1188.58435474 391.85902102 1191.97734841 391.14385986 1195.37034607 C387.44393729 1212.91672371 383.72102206 1230.45803885 380 1248 C266.48 1248 152.96 1248 36 1248 C41.74472082 1219.2763959 41.74472082 1219.2763959 43.81713867 1209.44580078 C44.05955071 1208.29093296 44.30196276 1207.13606514 44.55172062 1205.94620132 C45.33929904 1202.1956579 46.12859817 1198.44547911 46.91796875 1194.6953125 C47.4893741 1191.97698468 48.06043474 1189.25858447 48.63153076 1186.54019165 C50.0044857 1180.00618837 51.3788327 1173.47247868 52.75374377 1166.93888676 C53.88081629 1161.58293078 55.00734854 1156.22686139 56.13357544 1150.87072754 C67.7063293 1095.83418702 79.3271132 1040.8078577 90.96844482 985.78578186 C97.31192173 955.80296188 103.64751858 925.81847718 109.98228836 895.83381653 C110.77839624 892.06556656 111.57453505 888.29732314 112.37068218 884.52908146 C121.56051317 841.03259942 130.7411183 797.53417835 139.91454792 754.03423452 C149.04787402 710.72449283 158.18999877 667.41661753 167.34017515 624.11043262 C167.81226759 621.87609993 168.28435575 619.64176634 168.75644302 617.40743256 C173.66275798 594.18647263 178.56961924 570.96562814 183.47656059 547.74480057 C188.06761616 526.01881333 192.65852459 504.29279502 197.24901581 482.56668854 C197.87271011 479.61483835 198.49641345 476.66299007 199.12012482 473.71114349 C206.34574836 439.5142649 213.56778285 405.31663262 220.78125 371.1171875 C220.93928612 370.36793707 221.09732224 369.61868665 221.26014733 368.84673166 C224.30269681 354.42192305 227.34490794 339.99704312 230.38609278 325.57194674 C231.62055762 319.71657655 232.85520768 313.86124544 234.08990479 308.00592422 C234.82988759 304.49632658 235.5696137 300.9866749 236.30932617 297.47702026 C236.75853172 295.34665656 237.20774973 293.21629548 237.65698242 291.0859375 C237.94892628 289.70018619 237.94892628 289.70018619 238.246768 288.2864399 C239.81453326 280.85393527 241.40837789 273.42756985 243 266 C144.99 266 46.98 266 -54 266 C-30.73944544 149.6972272 -30.73944544 149.6972272 -22.54766846 109.14361572 C-21.62456296 104.57231287 -20.70254831 100.00079022 -19.78048325 95.42927742 C-16.8601701 80.95153065 -13.93305532 66.47517053 -11 52 C-10.76654373 50.84745476 -10.53308746 49.69490952 -10.29255676 48.50743866 C-8.88158871 41.54274899 -7.46830719 34.57853533 -6.05182266 27.61496544 C-5.60926956 25.43812235 -5.16733209 23.261154 -4.72603989 21.08405495 C-4.1201021 18.09562519 -3.51179646 15.1076873 -2.90283203 12.11987305 C-2.63431364 10.79193128 -2.63431364 10.79193128 -2.36037064 9.4371624 C-2.1121512 8.22317615 -2.1121512 8.22317615 -1.85891724 6.98466492 C-1.71629015 6.28315654 -1.57366306 5.58164816 -1.42671394 4.85888195 C-1 3 -1 3 0 0 Z " fill="#4D7DBF" transform="translate(552,1306)"/>
<path d="M0 0 C24.09 0 48.18 0 73 0 C67.25380504 31.0294528 67.25380504 31.0294528 64.38500977 45.28613281 C64.05485992 46.93468417 63.72488788 48.58327114 63.39507389 50.23188972 C62.69421014 53.73335722 61.9921535 57.23458238 61.28908157 60.73560715 C60.15802561 66.36790158 59.0298386 72.00076867 57.90194702 77.63369751 C56.28989789 85.68324686 54.67663565 93.73255216 53.06246948 101.78167725 C49.08158417 121.63309536 45.10695824 141.48576727 41.13286614 161.33854628 C40.50753025 164.46234746 39.88212182 167.58613412 39.25670433 170.70991898 C34.08457196 196.5445547 28.92532159 222.38166662 23.8046875 248.2265625 C23.67305639 248.89089735 23.54142528 249.5552322 23.40580535 250.23969841 C20.91207453 262.82638237 18.42294831 275.41397407 15.93778229 288.00235176 C15.11543945 292.16720979 14.2923527 296.33192066 13.46922684 300.49662399 C12.78707353 303.95088895 12.10690794 307.4055437 11.4274807 310.86034584 C9.36558347 321.26122212 7.18503403 331.62108836 5 342 C-18.1 342 -41.2 342 -65 342 C-63.68 334.74 -62.36 327.48 -61 320 C-63.31 321.98 -65.62 323.96 -68 326 C-93.55177133 344.01080061 -125.44842255 350.18481669 -156.22509766 344.87304688 C-176.81789994 340.70793517 -194.30488257 332.02375717 -210 318 C-210.62003906 317.46246094 -211.24007812 316.92492188 -211.87890625 316.37109375 C-230.60962987 299.03105031 -240.89355729 272.15808237 -242.20507812 247.07836914 C-242.32734019 242.84364703 -242.33396083 238.61113172 -242.3125 234.375 C-242.31067719 233.62743439 -242.30885437 232.87986877 -242.30697632 232.10964966 C-242.25950997 220.53203502 -241.75901885 209.28640589 -239 198 C-238.82839355 197.29214355 -238.65678711 196.58428711 -238.47998047 195.85498047 C-229.25072448 159.17714188 -207.52415378 128.3188642 -175.09375 108.6015625 C-161.50527636 100.55960713 -147.44452157 95.24819058 -132 92 C-130.94167969 91.773125 -129.88335938 91.54625 -128.79296875 91.3125 C-100.47414163 86.28424956 -67.27682372 89.61531216 -43 106 C-36.57727218 110.94083687 -31.0975107 116.7247251 -26 123 C-23.91338553 117.38677877 -22.8277861 111.65188827 -21.67749023 105.79394531 C-21.45447235 104.67462112 -21.23145447 103.55529694 -21.00167847 102.40205383 C-20.51926151 99.97811801 -20.03863487 97.55382533 -19.55959892 95.12921906 C-18.8023499 91.29652275 -18.04045258 87.46477638 -17.27735901 83.63323975 C-15.79707571 76.19761249 -14.32249194 68.76086075 -12.84858704 61.32396698 C-10.84206006 51.20087788 -8.83197722 41.0785017 -6.81718636 30.95705414 C-6.06521649 27.17394355 -5.31686463 23.39012895 -4.56871033 19.60626221 C-4.11033554 17.30030246 -3.65181206 14.99437227 -3.19311523 12.68847656 C-2.98478561 11.62975845 -2.77645599 10.57104034 -2.56181335 9.48023987 C-2.36980347 8.51853378 -2.17779358 7.5568277 -1.97996521 6.565979 C-1.81387473 5.72756596 -1.64778425 4.88915291 -1.47666073 4.0253334 C-1 2 -1 2 0 0 Z M-149.25 173.1875 C-164.94160255 191.2970702 -170.26953834 213.94629631 -169.1953125 237.51660156 C-168.37181904 247.98732089 -165.23083167 257.47962389 -159 266 C-158.2575 267.051875 -157.515 268.10375 -156.75 269.1875 C-144.96508981 281.24024906 -129.51530327 285.87931559 -113 286.375 C-92.70725074 285.76677046 -75.57666095 278.37529488 -61.30493164 263.90942383 C-46.57880595 248.1413438 -40.56821926 227.32003175 -40.6875 206.0625 C-40.69595947 204.48045776 -40.69595947 204.48045776 -40.70458984 202.86645508 C-40.93282659 188.26269273 -44.81513163 175.72959508 -54.96484375 164.84375 C-82.52438676 139.87617937 -125.22201214 148.28043941 -149.25 173.1875 Z " fill="#4D7DBF" transform="translate(3228,2512)"/>
<path d="M0 0 C2.005863 1.76547234 3.97269673 3.56304564 5.9375 5.375 C6.61167969 5.96796875 7.28585938 6.5609375 7.98046875 7.171875 C27.70566309 25.40752377 35.80422392 53.42894232 36.9375 79.375 C37.70559124 115.08740207 27.33866743 149.98754099 3.9375 177.375 C3.48149414 177.91463379 3.02548828 178.45426758 2.55566406 179.01025391 C-22.01287492 207.76910307 -57.70724755 224.64499387 -95.14135742 228.17651367 C-101.23329129 228.5904495 -107.33358631 228.61973508 -113.4375 228.625 C-114.14392639 228.62567474 -114.85035278 228.62634949 -115.57818604 228.62704468 C-152.67498596 228.57097872 -186.0179689 217.80106893 -212.65844727 191.2199707 C-232.75474904 170.29810518 -239.61574041 141.65192496 -239.41577148 113.43383789 C-238.60254994 76.91465244 -225.85789058 44.18862005 -201.0625 17.375 C-200.30195313 16.54355469 -199.54140625 15.71210938 -198.7578125 14.85546875 C-150.92187187 -35.1707622 -53.8836087 -46.00800883 0 0 Z M-145.23828125 54.64453125 C-161.98296738 74.2504453 -166.29000139 98.28411906 -165.0625 123.375 C-163.6792339 135.95130006 -158.0343935 147.74198969 -148.703125 156.375 C-133.55751849 167.8462286 -115.25808521 170.43550702 -96.75976562 168.08203125 C-79.36304294 165.14307537 -63.61087182 155.36465904 -52.97265625 141.296875 C-39.88195449 121.27265226 -33.82395896 97.07442426 -38.125 73.3125 C-41.60496787 59.0542983 -48.8036316 47.84991775 -60.9375 39.5 C-88.30425251 23.84599552 -124.31847423 32.82333219 -145.23828125 54.64453125 Z " fill="#4D7DBF" transform="translate(3634.0625,2629.625)"/>
<path d="M0 0 C1.29461655 0.00222061 2.58923309 0.00444122 3.92308044 0.00672913 C4.99131546 0.00651009 4.99131546 0.00651009 6.08113098 0.00628662 C8.4457143 0.00698581 10.81021979 0.01477846 13.17478943 0.02259827 C14.81003781 0.02446243 16.44528675 0.02588634 18.08053589 0.02688599 C22.39273103 0.03071134 26.7048927 0.04054177 31.01707458 0.05158997 C35.41404263 0.06180371 39.81101607 0.06638353 44.20799255 0.07142639 C52.84147149 0.08216402 61.47492317 0.09924065 70.10838318 0.12025452 C69.87336594 1.31817627 69.63834869 2.51609802 69.39620972 3.75032043 C67.14650663 15.21763955 64.89712731 26.68502214 62.64803982 38.15246201 C61.49264144 44.0434492 60.3371413 49.93441639 59.18138123 55.82533264 C56.7605757 68.16453766 54.34131772 80.50404295 51.92560387 92.84424591 C50.76939412 98.74945218 49.61059319 104.65413885 48.44874859 110.55823898 C47.78815542 113.91749196 47.12971224 117.27716364 46.4718647 120.63695526 C46.17472994 122.1519921 45.87666142 123.66684616 45.57755852 125.18149567 C41.91546211 143.73125486 39.22330951 160.34414989 50.10838318 177.12025452 C57.20954599 184.88957925 68.53158106 187.74852222 78.70213318 188.32337952 C97.8406923 188.55304223 114.53142775 184.01914157 129.10838318 171.12025452 C140.19087431 160.23035012 145.56828329 146.60961255 148.99778748 131.73670959 C149.25253436 130.65244344 149.50728125 129.56817728 149.76974773 128.45105457 C152.66323164 115.98011489 155.1875671 103.43593018 157.69041443 90.88197327 C158.19467369 88.3712911 158.69937733 85.86069815 159.20449829 83.35018921 C160.38229308 77.49157586 161.55612705 71.63217893 162.72775525 65.77233011 C164.70977322 55.86054089 166.70069721 45.95053791 168.69082642 36.04037476 C169.6765444 31.13172663 170.66023463 26.22267901 171.64227295 21.31329346 C172.08775825 19.08968503 172.53324849 16.86607759 172.97874451 14.64247131 C173.18078995 13.63014435 173.38283539 12.61781738 173.59100342 11.57481384 C173.77723267 10.64623062 173.96346191 9.7176474 174.15533447 8.76092529 C174.31622968 7.95640773 174.47712488 7.15189016 174.6428957 6.32299328 C175.08214949 4.24439528 175.59311549 2.18132529 176.10838318 0.12025452 C200.19838318 0.12025452 224.28838318 0.12025452 249.10838318 0.12025452 C247.9833798 10.24528496 247.9833798 10.24528496 247.30934429 13.62884426 C247.0801538 14.79381818 247.0801538 14.79381818 246.84633321 15.98232692 C246.5979926 17.21443569 246.5979926 17.21443569 246.34463501 18.47143555 C246.16692654 19.36889026 245.98921808 20.26634497 245.80612451 21.19099528 C245.2141151 24.17587587 244.61670276 27.15964808 244.01927185 30.14344788 C243.59180138 32.29281846 243.16466053 34.44225463 242.73782349 36.5917511 C241.5799841 42.41732025 240.41739377 48.24193197 239.25383544 54.06636119 C238.03336159 60.17933249 236.81690709 66.29310366 235.59991455 72.4067688 C233.55382823 82.68230853 231.50480321 92.95725901 229.45384216 103.23182678 C227.35110746 113.76577546 225.25107043 124.30025715 223.15403748 134.83534241 C220.61966255 147.56751986 218.08331186 160.29930175 215.54496193 173.03068733 C214.57912682 177.87496611 213.6139715 182.71937958 212.64935875 187.5639019 C211.50951241 193.28772308 210.36760542 199.01112963 209.22418404 204.73423767 C208.807529 206.82126047 208.39152575 208.90841353 207.97626495 210.99571419 C207.40372821 213.87292399 206.82868435 216.74962278 206.25308228 219.6262207 C206.09421404 220.42755005 205.9353458 221.2288794 205.77166337 222.05449146 C204.02062107 230.77737315 202.03990948 239.42838614 200.10838318 248.12025452 C177.33838318 248.12025452 154.56838318 248.12025452 131.10838318 248.12025452 C131.74927689 242.35221113 132.42217542 237.14979362 133.67088318 231.55775452 C134.07500427 229.73050842 134.07500427 229.73050842 134.48728943 227.86634827 C134.69225037 226.96013733 134.8972113 226.05392639 135.10838318 225.12025452 C134.28338318 225.74931702 133.45838318 226.37837952 132.60838318 227.02650452 C104.7615301 247.84214983 71.02096227 256.27333018 36.45994568 251.42884827 C13.30656266 247.51315473 -6.88465721 236.82650718 -20.78614807 217.48744202 C-27.02444971 207.51078894 -30.91732589 196.71329085 -32.89161682 185.12025452 C-33.02181213 184.38033264 -33.15200745 183.64041077 -33.28614807 182.87806702 C-36.48071383 160.30313564 -30.97525778 137.47766633 -26.58692932 115.47572327 C-26.05999816 112.81291621 -25.53502738 110.14972365 -25.00999451 107.48654175 C-23.77342194 101.22001329 -22.53022985 94.95481789 -21.2845639 88.69009143 C-19.88097717 81.62938895 -18.48505606 74.56717809 -17.0896914 67.50484693 C-14.4559067 54.17595861 -11.81762723 40.84796543 -9.16316223 27.5231781 C-8.330416 23.340335 -7.50694383 19.1558454 -6.69184875 14.9695282 C-6.50727049 14.02813397 -6.32269222 13.08673975 -6.13252068 12.11681843 C-5.79120584 10.37523594 -5.45281291 8.63307727 -5.11789131 6.89025402 C-3.7926048 0.15772417 -3.7926048 0.15772417 0 0 Z " fill="#4D7DBF" transform="translate(2736.891616821289,2605.8797454833984)"/>
<path d="M0 0 C0.33 0.66 0.66 1.32 1 2 C0.00292969 4.43237305 0.00292969 4.43237305 -1.578125 7.51171875 C-2.15715576 8.65213623 -2.73618652 9.79255371 -3.33276367 10.9675293 C-3.97167559 12.20760551 -4.610758 13.4475939 -5.25 14.6875 C-6.54693881 17.22715494 -7.83844943 19.76954631 -9.12890625 22.3125 C-9.61892876 23.2758149 -9.61892876 23.2758149 -10.11885071 24.2585907 C-12.24371871 28.45262868 -14.28703328 32.67738604 -16.27734375 36.9375 C-16.77137695 37.99493408 -17.26541016 39.05236816 -17.77441406 40.1418457 C-18.70236704 42.14188258 -19.62255218 44.14554547 -20.53417969 46.15307617 C-20.94958008 47.04486572 -21.36498047 47.93665527 -21.79296875 48.85546875 C-22.32700317 50.02565552 -22.32700317 50.02565552 -22.87182617 51.21948242 C-24 53 -24 53 -27 54 C-29.52027675 52.87258626 -31.89044128 51.68539222 -34.3125 50.375 C-52.30108975 41.10540044 -71.73904244 36.66666956 -92 36 C-93.07636719 35.96003906 -94.15273437 35.92007813 -95.26171875 35.87890625 C-110.03232963 35.59771881 -127.02951431 36.30960682 -139 46 C-142.928042 50.05647934 -144.87838402 53.11495235 -145.25 58.875 C-145.16465642 62.7652449 -144.61556429 64.97575379 -142 68 C-128.94080097 78.43455609 -109.76032403 80.18419183 -93.91015625 83.4765625 C-68.92767245 88.68424966 -68.92767245 88.68424966 -57 93 C-55.91976562 93.38800781 -54.83953125 93.77601563 -53.7265625 94.17578125 C-46.73398627 96.87945997 -40.89728278 100.38994138 -35 105 C-34.28972656 105.53367187 -33.57945312 106.06734375 -32.84765625 106.6171875 C-22.39166688 115.00606189 -17.28574397 126.75398824 -15.46875 139.8203125 C-13.44607862 160.32514364 -18.05092879 180.6960057 -31 197 C-52.06030027 222.0192691 -84.41247541 232.38287263 -116.10546875 235.53125 C-138.97033494 237.33556166 -162.3943969 236.94085325 -185 233 C-186.43956055 232.75056641 -186.43956055 232.75056641 -187.90820312 232.49609375 C-205.84010878 229.2575556 -223.643687 224.16203709 -239.875 215.75 C-240.803125 215.27469849 -240.803125 215.27469849 -241.75 214.78979492 C-245.74032143 212.57945844 -245.74032143 212.57945844 -246.8059082 210.20166016 C-247.07393946 207.1612754 -246.10864446 205.59644485 -244.67578125 202.9140625 C-243.88264526 201.40912231 -243.88264526 201.40912231 -243.07348633 199.8737793 C-242.49236084 198.80168213 -241.91123535 197.72958496 -241.3125 196.625 C-240.72686279 195.52260986 -240.14122559 194.42021973 -239.5378418 193.28442383 C-237.70653729 189.84817791 -235.85650606 186.42268826 -234 183 C-233.41734375 181.92379395 -232.8346875 180.84758789 -232.234375 179.73876953 C-229.21699007 174.17373591 -226.18241951 168.61856612 -223.12231445 163.0769043 C-222.03825335 161.07078991 -221.00779635 159.04532716 -220 157 C-216.43785257 158.33240629 -213.10330656 159.95157979 -209.73632812 161.71582031 C-178.63886039 177.90668478 -138.47350155 185.97222657 -104 177 C-96.27283379 174.29590154 -90.96782584 171.25154378 -87 164 C-85.4049156 159.2147468 -85.3272216 155.52904181 -87.375 150.875 C-98.76098854 138.4046316 -123.3150311 137.18000924 -139.09448242 134.078125 C-164.37169278 129.08905537 -191.80652549 122.28185129 -208.2421875 100.7890625 C-217.55531843 86.01222809 -218.27720157 66.30107218 -215.3515625 49.4453125 C-210.26261331 28.87203928 -197.67528549 12.31296747 -179.9375 0.875 C-130.40978921 -27.99191486 -49.91574659 -30.46328652 0 0 Z " fill="#4D7DBF" transform="translate(2519,2622)"/>
<path d="M0 0 C24.09 0 48.18 0 73 0 C71.875 12.375 71.875 12.375 70.96850586 16.74682617 C70.76559937 17.74033081 70.56269287 18.73383545 70.3536377 19.75744629 C70.14283569 20.7591687 69.93203369 21.76089111 69.71484375 22.79296875 C69.5192688 23.74514282 69.32369385 24.69731689 69.12219238 25.67834473 C68.40056703 29.18276316 67.6684428 32.68501312 66.9375 36.1875 C65.308125 44.045625 63.67875 51.90375 62 60 C82.13 60 102.26 60 123 60 C121.87477261 71.25227393 121.87477261 71.25227393 121.07617188 75.25024414 C120.81084656 76.59567039 120.81084656 76.59567039 120.54016113 77.96827698 C120.25731262 79.36263222 120.25731262 79.36263222 119.96875 80.78515625 C119.77277222 81.76745712 119.57679443 82.749758 119.37487793 83.76182556 C118.96367582 85.81686396 118.55011438 87.87143158 118.13427734 89.92553711 C117.49568533 93.08383917 116.86649526 96.24391597 116.23828125 99.40429688 C115.83649058 101.40636108 115.43416636 103.40831829 115.03125 105.41015625 C114.84268433 106.35794449 114.65411865 107.30573273 114.45983887 108.28224182 C114.28295532 109.15082321 114.10607178 110.0194046 113.92382812 110.91430664 C113.76918091 111.68134415 113.61453369 112.44838165 113.4552002 113.23866272 C113 115 113 115 112 116 C110.06693502 116.09396057 108.13041162 116.11743517 106.19506836 116.11352539 C104.95385727 116.11344986 103.71264618 116.11337433 102.43382263 116.11329651 C101.0691626 116.10818911 99.70450298 116.1029731 98.33984375 116.09765625 C96.95121817 116.095792 95.56259193 116.09436813 94.17396545 116.09336853 C90.51278885 116.08954387 86.8516517 116.07971403 83.19049072 116.06866455 C79.45707737 116.05844932 75.72365766 116.05387067 71.99023438 116.04882812 C64.66013823 116.03809171 57.33007464 116.02101591 50 116 C49.94829934 116.61455205 49.89659868 117.2291041 49.84333134 117.86227894 C49.30721326 123.75253722 48.43870476 129.46327628 47.23413086 135.25073242 C47.05842056 136.11567322 46.88271027 136.98061401 46.70167542 137.87176514 C46.32338626 139.73213917 45.94301839 141.59209153 45.56074333 143.45165062 C44.95397728 146.40842102 44.35507309 149.36668532 43.75843811 152.32551575 C42.06263294 160.73221461 40.35922033 169.13730724 38.63549805 177.53833008 C37.57790713 182.6956256 36.53472709 187.85566737 35.5003376 193.01766396 C35.1065943 194.96849426 34.70760187 196.91827363 34.30296135 198.86687279 C29.37766012 219.86571659 29.37766012 219.86571659 34.515625 240.04296875 C38.13923932 244.82041815 43.16119447 247.14785 49 248 C60.18134928 248.84415485 69.10409862 246.7028266 79.33984375 242.38671875 C80.40452881 241.93901123 81.46921387 241.49130371 82.56616211 241.0300293 C83.36932861 240.69011963 84.17249512 240.35020996 85 240 C88.8242966 257.30284617 92.63312301 274.60098349 96 292 C72.16579744 307.30257797 39.26463535 310.97306483 11.625 305.8125 C9.40296813 305.26084082 7.1929314 304.65787942 5 304 C3.80632813 303.64808594 2.61265625 303.29617188 1.3828125 302.93359375 C-15.52485854 297.42496544 -28.95193175 287.04275674 -37.4375 271.33984375 C-51.15608145 242.96361129 -42.43083179 211.12625181 -36.3526001 181.91326904 C-35.34697962 177.05159873 -34.37208968 172.1837819 -33.39453125 167.31640625 C-31.78823943 159.33701359 -30.15923981 151.36258391 -28.51523972 143.3908844 C-26.63741431 134.26842696 -24.81970707 125.13421587 -23 116 C-35.54 116 -48.08 116 -61 116 C-57.37 97.52 -53.74 79.04 -50 60 C-37.13 60 -24.26 60 -11 60 C-10.67 57.03 -10.34 54.06 -10 51 C-9.68434171 49.09399667 -9.34374097 47.19180565 -8.96850586 45.29663086 C-8.76559937 44.26227905 -8.56269287 43.22792725 -8.3536377 42.16223145 C-8.03743469 40.57952454 -8.03743469 40.57952454 -7.71484375 38.96484375 C-7.5192688 37.97133911 -7.32369385 36.97783447 -7.12219238 35.95422363 C-6.39801918 32.2811801 -5.66738867 28.60941205 -4.9375 24.9375 C-2.4934375 12.5934375 -2.4934375 12.5934375 0 0 Z " fill="#4D7DBF" transform="translate(2577,2551)"/>
<path d="M0 0 C24.09 0 48.18 0 73 0 C70.70271097 14.9323787 70.70271097 14.9323787 69.32600403 21.76197815 C69.1699756 22.54806157 69.01394717 23.33414498 68.8531906 24.14404911 C68.33945008 26.72881569 67.8217226 29.31276587 67.30395508 31.89672852 C66.93054051 33.77119641 66.55737877 35.64571468 66.18444824 37.52027893 C65.17629535 42.58424865 64.16469276 47.64752369 63.15249848 52.71068692 C62.08460181 58.05587812 61.02009222 63.40174377 59.95524597 68.74754333 C57.93297341 78.89737785 55.90796321 89.04666398 53.88183373 99.1957292 C50.27427559 117.26681751 46.67161588 135.33888277 43.06956404 153.41106933 C41.81119102 159.72403038 40.55172425 166.03677188 39.29129881 172.34932345 C38.30788392 177.2751509 37.32532152 182.20114817 36.34301758 187.12719727 C36.15622141 188.06359987 35.96942525 189.00000248 35.7769686 189.96478093 C33.79814585 199.88915763 31.83423923 209.81612639 29.91098022 219.75143433 C29.74639248 220.60130863 29.58180473 221.45118294 29.41222948 222.32681102 C28.6416481 226.30931248 27.87399048 230.29234721 27.11090565 234.27629185 C26.84309936 235.66649365 26.57527175 237.05669134 26.30741882 238.44688416 C26.07759654 239.64702117 25.84777426 240.84715818 25.61098766 242.08366299 C25 245 25 245 24 248 C-0.09 248 -24.18 248 -49 248 C-43.54277865 219.39734506 -38.00217407 190.8169971 -32.28515625 162.265625 C-32.13952476 161.53824064 -31.99389327 160.81085629 -31.84384871 160.06142998 C-29.89032646 150.30535924 -27.93308765 140.55003551 -25.97479248 130.79492188 C-23.41089853 118.0227403 -20.8499783 105.249962 -18.29072142 92.47685051 C-17.99619125 91.00692537 -17.70162846 89.53700676 -17.40703249 88.0670948 C-11.52670487 58.7264224 -5.74803954 29.36699152 0 0 Z " fill="#4D7DBF" transform="translate(3324,2606)"/>
<path d="M0 0 C6.7354324 5.29060778 11.70067013 11.43363901 13.4765625 19.9453125 C14.56401692 30.30587389 14.46293067 40.58028978 9.4765625 49.9453125 C9.0640625 50.73035156 8.6515625 51.51539062 8.2265625 52.32421875 C2.54127619 61.86968526 -6.80759004 68.57973792 -17.47900391 71.47607422 C-32.23405981 75.07572986 -48.2090725 74.20241323 -61.3984375 66.2578125 C-68.80719324 60.83378766 -74.57553151 52.98175212 -76.5234375 43.9453125 C-77.93931989 31.10632647 -76.59602061 19.46413291 -68.5234375 8.9453125 C-67.8428125 7.9759375 -67.1621875 7.0065625 -66.4609375 6.0078125 C-50.9389115 -12.1410179 -18.64978936 -12.84524397 0 0 Z " fill="#4D7DBF" transform="translate(3407.5234375,2499.0546875)"/>
</svg>
